<?xml version="1.0" encoding="UTF-8"?>
<svg id="Layer_2" data-name="Layer 2" xmlns="http://www.w3.org/2000/svg" viewBox="0 0 87.2 9.14">
  <defs>
    <style>
      .cls-1 {
        fill: #000;
        stroke-width: 0px;
      }
    </style>
  </defs>
  <g id="Layer_1-2" data-name="Layer 1">
    <g>
      <path class="cls-1" d="M3.72,8.9H0V.26h3.72c.54,0,.98.07,1.34.19.61.2,1.1.56,1.47,1.1.3.43.51.89.62,1.39s.16.98.16,1.43c0,1.15-.23,2.12-.69,2.92-.62,1.07-1.59,1.61-2.89,1.61ZM5.06,2.47c-.28-.47-.83-.7-1.65-.7h-1.66v5.64h1.66c.85,0,1.45-.42,1.78-1.26.18-.46.28-1.01.28-1.65,0-.88-.14-1.55-.41-2.03Z"/>
      <path class="cls-1" d="M12.25,9.14c-1.23,0-2.18-.34-2.83-1.01-.88-.82-1.31-2.01-1.31-3.56s.44-2.77,1.31-3.56c.65-.67,1.6-1.01,2.83-1.01s2.18.34,2.83,1.01c.87.79,1.31,1.98,1.31,3.56s-.44,2.74-1.31,3.56c-.65.67-1.6,1.01-2.83,1.01ZM13.95,6.82c.42-.53.63-1.28.63-2.25s-.21-1.72-.63-2.25-.99-.79-1.7-.79-1.29.26-1.71.79-.64,1.28-.64,2.25.21,1.72.64,2.25,1,.79,1.71.79,1.28-.26,1.71-.79Z"/>
      <path class="cls-1" d="M21.19,5.51h-1.86v3.39h-1.76V.26h4.24c.61.01,1.07.09,1.4.22s.6.34.83.6c.19.22.34.46.45.73s.16.57.16.91c0,.41-.1.81-.31,1.21s-.55.68-1.03.84c.4.16.68.39.85.68s.25.75.25,1.35v.58c0,.39.02.66.05.8.05.22.16.39.33.49v.22h-1.99c-.05-.19-.09-.35-.12-.46-.05-.24-.07-.49-.08-.74v-.8c-.02-.55-.12-.92-.31-1.1s-.56-.28-1.09-.28ZM22.28,3.94c.36-.16.54-.49.54-.97,0-.52-.17-.88-.52-1.05-.2-.1-.49-.15-.88-.15h-2.1v2.32h2.04c.41,0,.71-.05.91-.14Z"/>
      <path class="cls-1" d="M25.81.26h1.79v8.64h-1.79V.26Z"/>
      <path class="cls-1" d="M36.02,8.9h-1.8l-3.53-6.13v6.13h-1.68V.26h1.89l3.44,6.03V.26h1.68v8.64Z"/>
      <path class="cls-1" d="M42.52,7.12h-3.18l-.6,1.78h-1.89L39.94.26h2.04l3.06,8.64h-1.96l-.56-1.78ZM42.02,5.64l-1.08-3.4-1.11,3.4h2.19Z"/>
      <path class="cls-1" d="M48.55.26h1.8v7.08h4.28v1.55h-6.08V.26Z"/>
      <path class="cls-1" d="M60.69,7.12h-3.18l-.6,1.78h-1.89L58.11.26h2.04l3.06,8.64h-1.96l-.56-1.78ZM60.19,5.64l-1.08-3.4-1.11,3.4h2.19Z"/>
      <path class="cls-1" d="M67.2,7.65c.43,0,.77-.05,1.04-.14.5-.18.76-.51.76-1,0-.29-.12-.51-.38-.66-.25-.15-.64-.29-1.18-.4l-.91-.21c-.9-.2-1.52-.42-1.86-.66-.58-.4-.87-1.02-.87-1.87,0-.77.28-1.42.84-1.93S66.02.01,67.11.01c.91,0,1.69.24,2.33.72s.98,1.18,1.01,2.1h-1.73c-.03-.52-.26-.89-.68-1.11-.28-.14-.63-.22-1.05-.22-.46,0-.84.09-1.11.28s-.42.45-.42.79c0,.31.14.54.41.69.18.1.55.22,1.12.36l1.49.36c.65.16,1.14.37,1.48.63.52.41.77.99.77,1.76s-.3,1.44-.91,1.97-1.46.78-2.56.78-2.01-.26-2.65-.77-.97-1.22-.97-2.12h1.72c.05.39.16.69.32.88.29.36.79.53,1.51.53Z"/>
      <path class="cls-1" d="M77.92,8.26c-.64.59-1.47.88-2.47.88-1.24,0-2.22-.4-2.93-1.2-.71-.8-1.07-1.9-1.07-3.29,0-1.51.4-2.67,1.21-3.49.7-.71,1.6-1.07,2.68-1.07,1.45,0,2.52.48,3.19,1.43.37.54.57,1.07.6,1.61h-1.8c-.12-.41-.27-.73-.45-.94-.33-.38-.81-.56-1.46-.56s-1.17.26-1.55.79-.57,1.28-.57,2.25.2,1.69.6,2.18.91.72,1.53.72,1.12-.21,1.45-.62c.18-.22.34-.56.46-1h1.79c-.16.94-.55,1.71-1.2,2.3Z"/>
      <path class="cls-1" d="M85.4,8.9v-3.86h-3.38v3.86h-1.79V.26h1.79v3.29h3.38V.26h1.79v8.64h-1.79Z"/>
    </g>
  </g>
</svg>